<?xml version="1.0" encoding="UTF-8"?>
<svg width="24px" height="24px" viewBox="0 0 24 24" version="1.1" xmlns="http://www.w3.org/2000/svg" xmlns:xlink="http://www.w3.org/1999/xlink">
    <!-- Generator: Sketch 57.1 (83088) - https://sketch.com -->
    <title>A-outline</title>
    <desc>Created with Sketch.</desc>
    <g id="A-outline" stroke="none" stroke-width="1" fill="none" fill-rule="evenodd">
        <path d="M2.31936508,21.9710286 C2.24914607,21.9463014 2.19308738,21.9100475 2.14705222,21.8648259 C2.14371099,21.8591568 2.13902392,21.8544858 2.13443089,21.8497238 C2.12300652,21.8397305 2.11330371,21.8283031 2.10417067,21.8164659 C2.0947364,21.8035724 2.08559085,21.7910161 2.07705853,21.7780428 C2.07484507,21.7739687 2.07216348,21.7695439 2.06955334,21.7650788 C2.01208609,21.6725752 1.98605532,21.5603943 2.00742672,21.4429438 C2.01563779,21.3910693 2.03219251,21.3408765 2.05797279,21.2937321 L11.5536753,2.30684864 C11.5789082,2.23726061 11.6193532,2.17829334 11.6696347,2.13121586 C11.6742187,2.12726958 11.678649,2.12305447 11.6831383,2.1189502 C11.6892022,2.1138198 11.6951609,2.1089234 11.70123,2.10418024 C11.7974337,2.023984 11.9180913,1.99211656 12.0352476,2.00158154 C12.1355169,2.0081528 12.2268652,2.04175587 12.3030982,2.10531165 C12.3080755,2.11006176 12.3133306,2.11440553 12.3184936,2.11886764 C12.3232061,2.12305447 12.3276364,2.12726958 12.3320048,2.13159624 C12.3820462,2.17786666 12.4222129,2.23619269 12.4474899,2.30495914 L21.9444337,21.2947435 C21.9682322,21.3385279 21.9840923,21.3849233 21.9925688,21.4321693 C22.0218277,21.5764439 21.9800605,21.7126986 21.8974089,21.8156692 C21.8453909,21.8842427 21.7744183,21.9385836 21.6879736,21.9693154 C21.6196992,21.995099 21.5454181,22.0058238 21.4698595,21.9969163 L2.5319956,21.9969163 C2.45835475,22.0055977 2.38592739,21.9956307 2.31936508,21.9710286 Z M12.0009276,15.4365993 L3.98925081,21.044773 L20.0126043,21.044773 L12.0009276,15.4365993 Z M12.4770299,4.49358287 L12.4770299,14.607557 L20.25701,20.053543 L12.4770299,4.49358287 Z M11.5248252,4.49358287 L3.7448451,20.053543 L11.524,14.607 L11.5248252,4.49358287 Z" id="Combined-Shape" fill="#000000" fill-rule="nonzero"></path>
    </g>
</svg>