<?xml version="1.0" encoding="UTF-8"?>
<svg width="600px" height="180px" viewBox="0 0 600 180" version="1.1" xmlns="http://www.w3.org/2000/svg" xmlns:xlink="http://www.w3.org/1999/xlink">
    <!-- Generator: Sketch 57.1 (83088) - https://sketch.com -->
    <title>antwerp</title>
    <desc>Created with Sketch.</desc>
    <g id="antwerp" stroke="none" stroke-width="1" fill="none" fill-rule="evenodd">
        <g id="4-3-3,4_r90_r15(2e)_1581287613959" transform="translate(325.550699, 76.000000) rotate(45.000000) translate(-325.550699, -76.000000) translate(-155.000000, -424.000000)" fill-rule="nonzero" stroke="#212529">
            <polygon id="two-38572" fill="#4263EB" points="487.65035 540.316434 459.464598 540.316434 459.464598 512.130682 487.65035 512.130682"></polygon>
            <polygon id="two-38573" fill="#4868EC" points="487.65035 512.130682 459.464598 512.130682 473.557255 487.721591"></polygon>
            <polygon id="two-38574" fill="#4E6DEC" points="487.65035 512.130682 473.557255 487.721591 501.743007 487.721591"></polygon>
            <polygon id="two-38575" fill="#4E6DEC" points="473.557255 487.721591 459.464598 512.130682 435.055507 498.038024 449.148164 473.628934"></polygon>
            <polygon id="two-38576" fill="#5472ED" points="487.65035 540.316434 487.65035 512.130682 512.059441 526.223339"></polygon>
            <polygon id="two-38577" fill="#5472ED" points="487.65035 540.316434 512.059441 526.223339 512.059441 554.409091"></polygon>
            <polygon id="two-38578" fill="#5472ED" points="512.059441 526.223339 487.65035 512.130682 501.743007 487.721591 526.152098 501.814248"></polygon>
            <polygon id="two-38579" fill="#5A77ED" points="459.464598 540.316434 487.65035 540.316434 473.557692 564.725524"></polygon>
            <polygon id="two-38580" fill="#5A77ED" points="459.464598 540.316434 473.557692 564.725524 445.371941 564.725524"></polygon>
            <polygon id="two-38581" fill="#5A77ED" points="473.557692 564.725524 487.65035 540.316434 512.059441 554.409091 497.966783 578.818182"></polygon>
            <polygon id="two-38582" fill="#5A77ED" points="459.464598 512.130682 459.464598 540.316434 435.055507 526.223776"></polygon>
            <polygon id="two-38583" fill="#5A77ED" points="459.464598 512.130682 435.055507 526.223776 435.055507 498.038024"></polygon>
            <polygon id="two-38584" fill="#5A77ED" points="435.055507 526.223776 459.464598 540.316434 445.371941 564.725524 420.96285 550.632867"></polygon>
            <polygon id="two-38585" fill="#607CEE" points="473.557255 459.536276 501.743007 459.536276 501.743007 487.721591 473.557255 487.721591"></polygon>
            <polygon id="two-38586" fill="#607CEE" points="473.557255 459.536276 473.557255 487.721591 449.148164 473.628934"></polygon>
            <polygon id="two-38587" fill="#607CEE" points="473.557255 459.536276 449.148164 473.628934 449.148164 445.443619"></polygon>
            <polygon id="two-38588" fill="#607CEE" points="501.743007 459.536276 473.557255 459.536276 487.65035 435.127185"></polygon>
            <polygon id="two-38589" fill="#607CEE" points="501.743007 459.536276 487.65035 435.127185 515.835664 435.127185"></polygon>
            <polygon id="two-38590" fill="#607CEE" points="487.65035 435.127185 473.557255 459.536276 449.148164 445.443619 463.240822 421.034091"></polygon>
            <polygon id="two-38591" fill="#607CEE" points="501.743007 487.721591 501.743007 459.536276 526.152098 473.628934"></polygon>
            <polygon id="two-38592" fill="#607CEE" points="501.743007 487.721591 526.152098 473.628934 526.152098 501.814248"></polygon>
            <polygon id="two-38593" fill="#607CEE" points="526.152098 473.628934 501.743007 459.536276 515.835664 435.127185 540.244755 449.219843"></polygon>
            <polygon id="two-38594" fill="#6681EE" points="540.244755 526.223339 540.244755 554.409091 512.059441 554.409091 512.059441 526.223339"></polygon>
            <polygon id="two-38595" fill="#6681EE" points="540.244755 526.223339 512.059441 526.223339 526.152098 501.814248"></polygon>
            <polygon id="two-38596" fill="#6681EE" points="540.244755 526.223339 526.152098 501.814248 554.337413 501.814248"></polygon>
            <polygon id="two-38597" fill="#6681EE" points="540.244755 554.409091 540.244755 526.223339 564.653846 540.316434"></polygon>
            <polygon id="two-38598" fill="#6681EE" points="540.244755 554.409091 564.653846 540.316434 564.653846 568.501748"></polygon>
            <polygon id="two-38599" fill="#6681EE" points="564.653846 540.316434 540.244755 526.223339 554.337413 501.814248 578.746941 515.906906"></polygon>
            <polygon id="two-38600" fill="#6681EE" points="512.059441 554.409091 540.244755 554.409091 526.152098 578.818182"></polygon>
            <polygon id="two-38601" fill="#6681EE" points="512.059441 554.409091 526.152098 578.818182 497.966783 578.818182"></polygon>
            <polygon id="two-38602" fill="#6681EE" points="526.152098 578.818182 540.244755 554.409091 564.653846 568.501748 550.561189 592.910839"></polygon>
            <polygon id="two-38603" fill="#6C86EF" points="473.557692 592.910839 445.371941 592.910839 445.371941 564.725524 473.557692 564.725524"></polygon>
            <polygon id="two-38604" fill="#6C86EF" points="473.557692 592.910839 473.557692 564.725524 497.966783 578.818182"></polygon>
            <polygon id="two-38605" fill="#6C86EF" points="473.557692 592.910839 497.966783 578.818182 497.966783 607.003497"></polygon>
            <polygon id="two-38606" fill="#6C86EF" points="445.371941 592.910839 473.557692 592.910839 459.464598 617.31993"></polygon>
            <polygon id="two-38607" fill="#6C86EF" points="445.371941 592.910839 459.464598 617.31993 431.279283 617.31993"></polygon>
            <polygon id="two-38608" fill="#6C86EF" points="459.464598 617.31993 473.557692 592.910839 497.966783 607.003497 483.874126 631.413024"></polygon>
            <polygon id="two-38609" fill="#6C86EF" points="445.371941 564.725524 445.371941 592.910839 420.96285 578.818182"></polygon>
            <polygon id="two-38610" fill="#6C86EF" points="445.371941 564.725524 420.96285 578.818182 420.96285 550.632867"></polygon>
            <polygon id="two-38611" fill="#6C86EF" points="420.96285 578.818182 445.371941 592.910839 431.279283 617.31993 406.870192 603.227273"></polygon>
            <polygon id="two-38612" fill="#6C86EF" points="406.870192 526.223776 406.870192 498.038024 435.055507 498.038024 435.055507 526.223776"></polygon>
            <polygon id="two-38613" fill="#6C86EF" points="406.870192 526.223776 435.055507 526.223776 420.96285 550.632867"></polygon>
            <polygon id="two-38614" fill="#6C86EF" points="406.870192 526.223776 420.96285 550.632867 392.777535 550.632867"></polygon>
            <polygon id="two-38615" fill="#6C86EF" points="406.870192 498.038024 406.870192 526.223776 382.461101 512.130682"></polygon>
            <polygon id="two-38616" fill="#6C86EF" points="406.870192 498.038024 382.461101 512.130682 382.461101 483.945367"></polygon>
            <polygon id="two-38617" fill="#6C86EF" points="382.461101 512.130682 406.870192 526.223776 392.777535 550.632867 368.368007 536.54021"></polygon>
            <polygon id="two-38618" fill="#6C86EF" points="435.055507 498.038024 406.870192 498.038024 420.96285 473.628934"></polygon>
            <polygon id="two-38619" fill="#6C86EF" points="435.055507 498.038024 420.96285 473.628934 449.148164 473.628934"></polygon>
            <polygon id="two-38620" fill="#6C86EF" points="420.96285 473.628934 406.870192 498.038024 382.461101 483.945367 396.553759 459.536276"></polygon>
            <polygon id="two-38621" fill="#738BEF" points="420.96285 473.628934 420.96285 445.443619 449.148164 445.443619 449.148164 473.628934"></polygon>
            <polygon id="two-38622" fill="#738BEF" points="420.96285 445.443619 420.96285 473.628934 396.553759 459.536276"></polygon>
            <polygon id="two-38623" fill="#738BEF" points="420.96285 445.443619 396.553759 459.536276 396.553759 431.350962"></polygon>
            <polygon id="two-38624" fill="#738BEF" points="449.148164 445.443619 420.96285 445.443619 435.055507 421.034091"></polygon>
            <polygon id="two-38625" fill="#738BEF" points="449.148164 445.443619 435.055507 421.034091 463.240822 421.034091"></polygon>
            <polygon id="two-38626" fill="#738BEF" points="435.055507 421.034091 420.96285 445.443619 396.553759 431.350962 410.646416 406.941434"></polygon>
            <polygon id="two-38627" fill="#738BEF" points="487.65035 406.941434 515.835664 406.941434 515.835664 435.127185 487.65035 435.127185"></polygon>
            <polygon id="two-38628" fill="#738BEF" points="487.65035 406.941434 487.65035 435.127185 463.240822 421.034091"></polygon>
            <polygon id="two-38629" fill="#738BEF" points="487.65035 406.941434 463.240822 421.034091 463.240822 392.848776"></polygon>
            <polygon id="two-38630" fill="#738BEF" points="515.835664 406.941434 487.65035 406.941434 501.743007 382.532343"></polygon>
            <polygon id="two-38631" fill="#738BEF" points="515.835664 406.941434 501.743007 382.532343 529.928322 382.532343"></polygon>
            <polygon id="two-38632" fill="#738BEF" points="501.743007 382.532343 487.65035 406.941434 463.240822 392.848776 477.333479 368.439685"></polygon>
            <polygon id="two-38633" fill="#738BEF" points="515.835664 435.127185 515.835664 406.941434 540.244755 421.034091"></polygon>
            <polygon id="two-38634" fill="#738BEF" points="515.835664 435.127185 540.244755 421.034091 540.244755 449.219843"></polygon>
            <polygon id="two-38635" fill="#738BEF" points="540.244755 421.034091 515.835664 406.941434 529.928322 382.532343 554.337413 396.625"></polygon>
            <polygon id="two-38636" fill="#738BEF" points="554.337413 473.628934 554.337413 501.814248 526.152098 501.814248 526.152098 473.628934"></polygon>
            <polygon id="two-38637" fill="#738BEF" points="554.337413 473.628934 526.152098 473.628934 540.244755 449.219843"></polygon>
            <polygon id="two-38638" fill="#738BEF" points="554.337413 473.628934 540.244755 449.219843 568.43007 449.219843"></polygon>
            <polygon id="two-38639" fill="#738BEF" points="554.337413 501.814248 554.337413 473.628934 578.746941 487.721591"></polygon>
            <polygon id="two-38640" fill="#738BEF" points="554.337413 501.814248 578.746941 487.721591 578.746941 515.906906"></polygon>
            <polygon id="two-38641" fill="#738BEF" points="578.746941 487.721591 554.337413 473.628934 568.43007 449.219843 592.839598 463.3125"></polygon>
            <polygon id="two-38642" fill="#7990F0" points="592.839598 540.316434 592.839598 568.501748 564.653846 568.501748 564.653846 540.316434"></polygon>
            <polygon id="two-38643" fill="#7990F0" points="592.839598 540.316434 564.653846 540.316434 578.746941 515.906906"></polygon>
            <polygon id="two-38644" fill="#7990F0" points="592.839598 540.316434 578.746941 515.906906 606.932255 515.906906"></polygon>
            <polygon id="two-38647" fill="#7990F0" points="617.248689 554.409091 592.839598 540.316434 606.932255 515.906906 631.341346 529.999563"></polygon>
            <polygon id="two-38649" fill="#7990F0" points="564.653846 568.501748 578.746941 592.910839 550.561189 592.910839"></polygon>
            <polygon id="two-38651" fill="#7990F0" points="526.152098 607.003497 497.966783 607.003497 497.966783 578.818182 526.152098 578.818182"></polygon>
            <polygon id="two-38652" fill="#7990F0" points="526.152098 607.003497 526.152098 578.818182 550.561189 592.910839"></polygon>
            <polygon id="two-38653" fill="#7990F0" points="526.152098 607.003497 550.561189 592.910839 550.561189 621.096154"></polygon>
            <polygon id="two-38654" fill="#7990F0" points="497.966783 607.003497 526.152098 607.003497 512.059441 631.413024"></polygon>
            <polygon id="two-38655" fill="#7990F0" points="497.966783 607.003497 512.059441 631.413024 483.874126 631.413024"></polygon>
            <polygon id="two-38656" fill="#7990F0" points="512.059441 631.413024 526.152098 607.003497 550.561189 621.096154 536.468531 645.505682"></polygon>
            <polygon id="two-38657" fill="#7F95F0" points="459.464598 645.505682 431.279283 645.505682 431.279283 617.31993 459.464598 617.31993"></polygon>
            <polygon id="two-38658" fill="#7F95F0" points="459.464598 645.505682 459.464598 617.31993 483.874126 631.413024"></polygon>
            <polygon id="two-38659" fill="#7F95F0" points="459.464598 645.505682 483.874126 631.413024 483.874126 659.598339"></polygon>
            <polygon id="two-38660" fill="#7F95F0" points="431.279283 645.505682 459.464598 645.505682 445.371941 669.914773"></polygon>
            <polygon id="two-38661" fill="#7F95F0" points="431.279283 645.505682 445.371941 669.914773 417.186626 669.914773"></polygon>
            <polygon id="two-38662" fill="#7F95F0" points="445.371941 669.914773 459.464598 645.505682 483.874126 659.598339 469.781469 684.00743"></polygon>
            <polygon id="two-38663" fill="#7F95F0" points="431.279283 617.31993 431.279283 645.505682 406.870192 631.413024"></polygon>
            <polygon id="two-38664" fill="#7F95F0" points="431.279283 617.31993 406.870192 631.413024 406.870192 603.227273"></polygon>
            <polygon id="two-38665" fill="#7F95F0" points="406.870192 631.413024 431.279283 645.505682 417.186626 669.914773 392.777535 655.822115"></polygon>
            <polygon id="two-38666" fill="#7F95F0" points="392.777535 578.818182 392.777535 550.632867 420.96285 550.632867 420.96285 578.818182"></polygon>
            <polygon id="two-38667" fill="#7F95F0" points="392.777535 578.818182 420.96285 578.818182 406.870192 603.227273"></polygon>
            <polygon id="two-38668" fill="#7F95F0" points="392.777535 578.818182 406.870192 603.227273 378.684878 603.227273"></polygon>
            <polygon id="two-38669" fill="#7F95F0" points="392.777535 550.632867 392.777535 578.818182 368.368007 564.725524"></polygon>
            <polygon id="two-38670" fill="#7F95F0" points="392.777535 550.632867 368.368007 564.725524 368.368007 536.54021"></polygon>
            <polygon id="two-38671" fill="#7F95F0" points="368.368007 564.725524 392.777535 578.818182 378.684878 603.227273 354.27535 589.134615"></polygon>
            <polygon id="two-38672" fill="#7F95F0" points="354.27535 512.130682 354.27535 483.945367 382.461101 483.945367 382.461101 512.130682"></polygon>
            <polygon id="two-38673" fill="#7F95F0" points="354.27535 512.130682 382.461101 512.130682 368.368007 536.54021"></polygon>
            <polygon id="two-38674" fill="#7F95F0" points="354.27535 512.130682 368.368007 536.54021 340.182692 536.54021"></polygon>
            <polygon id="two-38677" fill="#7F95F0" points="329.866259 498.038024 354.27535 512.130682 340.182692 536.54021 315.773601 522.447552"></polygon>
            <polygon id="two-38679" fill="#7F95F0" points="382.461101 483.945367 368.368007 459.536276 396.553759 459.536276"></polygon>
            <polygon id="two-38687" fill="#859AF1" points="435.055507 392.848776 463.240822 392.848776 463.240822 421.034091 435.055507 421.034091"></polygon>
            <polygon id="two-38693" fill="#859AF1" points="501.743007 354.347028 529.928322 354.347028 529.928322 382.532343 501.743007 382.532343"></polygon>
            <polygon id="two-38694" fill="#859AF1" points="501.743007 354.347028 501.743007 382.532343 477.333479 368.439685"></polygon>
            <polygon id="two-38696" fill="#859AF1" points="529.928322 354.347028 501.743007 354.347028 515.835664 329.937937"></polygon>
            <polygon id="two-38697" fill="#859AF1" points="529.928322 354.347028 515.835664 329.937937 544.020979 329.937937"></polygon>
            <polygon id="two-38699" fill="#859AF1" points="529.928322 382.532343 529.928322 354.347028 554.337413 368.439685"></polygon>
            <polygon id="two-38700" fill="#859AF1" points="529.928322 382.532343 554.337413 368.439685 554.337413 396.625"></polygon>
            <polygon id="two-38701" fill="#859AF1" points="554.337413 368.439685 529.928322 354.347028 544.020979 329.937937 568.43007 344.030594"></polygon>
            <polygon id="two-38702" fill="#859AF1" points="568.43007 421.034091 568.43007 449.219843 540.244755 449.219843 540.244755 421.034091"></polygon>
            <polygon id="two-38703" fill="#859AF1" points="568.43007 421.034091 540.244755 421.034091 554.337413 396.625"></polygon>
            <polygon id="two-38704" fill="#859AF1" points="568.43007 421.034091 554.337413 396.625 582.522727 396.625"></polygon>
            <polygon id="two-38705" fill="#859AF1" points="568.43007 449.219843 568.43007 421.034091 592.839598 435.127185"></polygon>
            <polygon id="two-38706" fill="#859AF1" points="568.43007 449.219843 592.839598 435.127185 592.839598 463.3125"></polygon>
            <polygon id="two-38707" fill="#859AF1" points="592.839598 435.127185 568.43007 421.034091 582.522727 396.625 606.932255 410.717657"></polygon>
            <polygon id="two-38708" fill="#859AF1" points="606.932255 487.721591 606.932255 515.906906 578.746941 515.906906 578.746941 487.721591"></polygon>
            <polygon id="two-38709" fill="#859AF1" points="606.932255 487.721591 578.746941 487.721591 592.839598 463.3125"></polygon>
            <polygon id="two-38710" fill="#859AF1" points="606.932255 487.721591 592.839598 463.3125 621.024913 463.3125"></polygon>
            <polygon id="two-38711" fill="#859AF1" points="606.932255 515.906906 606.932255 487.721591 631.341346 501.814248"></polygon>
            <polygon id="two-38712" fill="#859AF1" points="606.932255 515.906906 631.341346 501.814248 631.341346 529.999563"></polygon>
            <polygon id="two-38713" fill="#859AF1" points="631.341346 501.814248 606.932255 487.721591 621.024913 463.3125 645.434003 477.405157"></polygon>
            <polygon id="two-38729" fill="#8B9FF1" points="512.059441 659.598339 483.874126 659.598339 483.874126 631.413024 512.059441 631.413024"></polygon>
            <polygon id="two-38735" fill="#91A4F2" points="445.371941 698.100087 417.186626 698.100087 417.186626 669.914773 445.371941 669.914773"></polygon>
            <polygon id="two-38736" fill="#91A4F2" points="445.371941 698.100087 445.371941 669.914773 469.781469 684.00743"></polygon>
            <polygon id="two-38738" fill="#91A4F2" points="417.186626 698.100087 445.371941 698.100087 431.279283 722.509178"></polygon>
            <polygon id="two-38739" fill="#91A4F2" points="417.186626 698.100087 431.279283 722.509178 403.093969 722.509178"></polygon>
            <polygon id="two-38741" fill="#91A4F2" points="417.186626 669.914773 417.186626 698.100087 392.777535 684.00743"></polygon>
            <polygon id="two-38742" fill="#91A4F2" points="417.186626 669.914773 392.777535 684.00743 392.777535 655.822115"></polygon>
            <polygon id="two-38743" fill="#91A4F2" points="392.777535 684.00743 417.186626 698.100087 403.093969 722.509178 378.684878 708.416521"></polygon>
            <polygon id="two-38744" fill="#91A4F2" points="378.684878 631.413024 378.684878 603.227273 406.870192 603.227273 406.870192 631.413024"></polygon>
            <polygon id="two-38745" fill="#91A4F2" points="378.684878 631.413024 406.870192 631.413024 392.777535 655.822115"></polygon>
            <polygon id="two-38746" fill="#91A4F2" points="378.684878 631.413024 392.777535 655.822115 364.59222 655.822115"></polygon>
            <polygon id="two-38747" fill="#91A4F2" points="378.684878 603.227273 378.684878 631.413024 354.27535 617.31993"></polygon>
            <polygon id="two-38748" fill="#91A4F2" points="378.684878 603.227273 354.27535 617.31993 354.27535 589.134615"></polygon>
            <polygon id="two-38749" fill="#91A4F2" points="354.27535 617.31993 378.684878 631.413024 364.59222 655.822115 340.182692 641.729458"></polygon>
            <polygon id="two-38750" fill="#91A4F2" points="340.182692 564.725524 340.182692 536.54021 368.368007 536.54021 368.368007 564.725524"></polygon>
            <polygon id="two-38751" fill="#91A4F2" points="340.182692 564.725524 368.368007 564.725524 354.27535 589.134615"></polygon>
            <polygon id="two-38752" fill="#91A4F2" points="340.182692 564.725524 354.27535 589.134615 326.090035 589.134615"></polygon>
            <polygon id="two-38753" fill="#91A4F2" points="340.182692 536.54021 340.182692 564.725524 315.773601 550.632867"></polygon>
            <polygon id="two-38754" fill="#91A4F2" points="340.182692 536.54021 315.773601 550.632867 315.773601 522.447552"></polygon>
            <polygon id="two-38755" fill="#91A4F2" points="315.773601 550.632867 340.182692 564.725524 326.090035 589.134615 301.680944 575.041958"></polygon>
            <polygon id="two-38783" fill="#97A9F2" points="515.835664 301.752185 544.020979 301.752185 544.020979 329.937937 515.835664 329.937937"></polygon>
            <polygon id="two-38789" fill="#97A9F2" points="544.020979 329.937937 544.020979 301.752185 568.43007 315.844843"></polygon>
            <polygon id="two-38790" fill="#97A9F2" points="544.020979 329.937937 568.43007 315.844843 568.43007 344.030594"></polygon>
            <polygon id="two-38791" fill="#97A9F2" points="568.43007 315.844843 544.020979 301.752185 558.113636 277.343094 582.522727 291.435752"></polygon>
            <polygon id="two-38792" fill="#97A9F2" points="582.522727 368.439685 582.522727 396.625 554.337413 396.625 554.337413 368.439685"></polygon>
            <polygon id="two-38793" fill="#97A9F2" points="582.522727 368.439685 554.337413 368.439685 568.43007 344.030594"></polygon>
            <polygon id="two-38794" fill="#97A9F2" points="582.522727 368.439685 568.43007 344.030594 596.615385 344.030594"></polygon>
            <polygon id="two-38795" fill="#97A9F2" points="582.522727 396.625 582.522727 368.439685 606.932255 382.532343"></polygon>
            <polygon id="two-38796" fill="#97A9F2" points="582.522727 396.625 606.932255 382.532343 606.932255 410.717657"></polygon>
            <polygon id="two-38797" fill="#97A9F2" points="606.932255 382.532343 582.522727 368.439685 596.615385 344.030594 621.024913 358.123252"></polygon>
            <polygon id="two-38798" fill="#97A9F2" points="621.024913 435.127185 621.024913 463.3125 592.839598 463.3125 592.839598 435.127185"></polygon>
            <polygon id="two-38799" fill="#97A9F2" points="621.024913 435.127185 592.839598 435.127185 606.932255 410.717657"></polygon>
            <polygon id="two-38800" fill="#97A9F2" points="621.024913 435.127185 606.932255 410.717657 635.11757 410.717657"></polygon>
            <polygon id="two-38801" fill="#97A9F2" points="621.024913 463.3125 621.024913 435.127185 645.434003 449.219843"></polygon>
            <polygon id="two-38802" fill="#97A9F2" points="621.024913 463.3125 645.434003 449.219843 645.434003 477.405157"></polygon>
            <polygon id="two-38803" fill="#97A9F2" points="645.434003 449.219843 621.024913 435.127185 635.11757 410.717657 659.526661 424.810315"></polygon>
            <polygon id="two-38805" fill="#97A9F2" points="659.526661 501.814248 631.341346 501.814248 645.434003 477.405157"></polygon>
            <polygon id="two-38806" fill="#97A9F2" points="659.526661 501.814248 645.434003 477.405157 673.619318 477.405157"></polygon>
            <polygon id="two-38837" fill="#A3B3F3" points="431.279283 750.69493 403.093969 750.69493 403.093969 722.509178 431.279283 722.509178"></polygon>
            <polygon id="two-38843" fill="#A3B3F3" points="403.093969 722.509178 403.093969 750.69493 378.684878 736.602273"></polygon>
            <polygon id="two-38844" fill="#A3B3F3" points="403.093969 722.509178 378.684878 736.602273 378.684878 708.416521"></polygon>
            <polygon id="two-38845" fill="#A3B3F3" points="378.684878 736.602273 403.093969 750.69493 389.001311 775.104021 364.59222 761.011364"></polygon>
            <polygon id="two-38846" fill="#A3B3F3" points="364.59222 684.00743 364.59222 655.822115 392.777535 655.822115 392.777535 684.00743"></polygon>
            <polygon id="two-38847" fill="#A3B3F3" points="364.59222 684.00743 392.777535 684.00743 378.684878 708.416521"></polygon>
            <polygon id="two-38848" fill="#A3B3F3" points="364.59222 684.00743 378.684878 708.416521 350.499563 708.416521"></polygon>
            <polygon id="two-38849" fill="#A3B3F3" points="364.59222 655.822115 364.59222 684.00743 340.182692 669.914773"></polygon>
            <polygon id="two-38850" fill="#A3B3F3" points="364.59222 655.822115 340.182692 669.914773 340.182692 641.729458"></polygon>
            <polygon id="two-38851" fill="#A3B3F3" points="340.182692 669.914773 364.59222 684.00743 350.499563 708.416521 326.090035 694.323864"></polygon>
            <polygon id="two-38852" fill="#A3B3F3" points="326.090035 617.31993 326.090035 589.134615 354.27535 589.134615 354.27535 617.31993"></polygon>
            <polygon id="two-38853" fill="#A3B3F3" points="326.090035 617.31993 354.27535 617.31993 340.182692 641.729458"></polygon>
            <polygon id="two-38854" fill="#A3B3F3" points="326.090035 617.31993 340.182692 641.729458 311.997378 641.729458"></polygon>
            <polygon id="two-38855" fill="#A3B3F3" points="326.090035 589.134615 326.090035 617.31993 301.680944 603.227273"></polygon>
            <polygon id="two-38856" fill="#A3B3F3" points="326.090035 589.134615 301.680944 603.227273 301.680944 575.041958"></polygon>
            <polygon id="two-38857" fill="#A3B3F3" points="301.680944 603.227273 326.090035 617.31993 311.997378 641.729458 287.588287 627.636801"></polygon>
            <polygon id="two-38859" fill="#A3B3F3" points="287.588287 550.632867 315.773601 550.632867 301.680944 575.041958"></polygon>
            <polygon id="two-38860" fill="#A3B3F3" points="287.588287 550.632867 301.680944 575.041958 273.495629 575.041958"></polygon>
            <polygon id="two-38904" fill="#A9B8F4" points="558.113636 277.343094 582.522727 263.250437 582.522727 291.435752"></polygon>
            <polygon id="two-38906" fill="#A9B8F4" points="596.615385 315.844843 596.615385 344.030594 568.43007 344.030594 568.43007 315.844843"></polygon>
            <polygon id="two-38907" fill="#A9B8F4" points="596.615385 315.844843 568.43007 315.844843 582.522727 291.435752"></polygon>
            <polygon id="two-38908" fill="#A9B8F4" points="596.615385 315.844843 582.522727 291.435752 610.708042 291.435752"></polygon>
            <polygon id="two-38909" fill="#A9B8F4" points="596.615385 344.030594 596.615385 315.844843 621.024913 329.937937"></polygon>
            <polygon id="two-38910" fill="#A9B8F4" points="596.615385 344.030594 621.024913 329.937937 621.024913 358.123252"></polygon>
            <polygon id="two-38911" fill="#A9B8F4" points="621.024913 329.937937 596.615385 315.844843 610.708042 291.435752 635.11757 305.528409"></polygon>
            <polygon id="two-38912" fill="#A9B8F4" points="635.11757 382.532343 635.11757 410.717657 606.932255 410.717657 606.932255 382.532343"></polygon>
            <polygon id="two-38913" fill="#A9B8F4" points="635.11757 382.532343 606.932255 382.532343 621.024913 358.123252"></polygon>
            <polygon id="two-38914" fill="#A9B8F4" points="635.11757 382.532343 621.024913 358.123252 649.210227 358.123252"></polygon>
            <polygon id="two-38915" fill="#A9B8F4" points="635.11757 410.717657 635.11757 382.532343 659.526661 396.625"></polygon>
            <polygon id="two-38916" fill="#A9B8F4" points="635.11757 410.717657 659.526661 396.625 659.526661 424.810315"></polygon>
            <polygon id="two-38917" fill="#A9B8F4" points="659.526661 396.625 635.11757 382.532343 649.210227 358.123252 673.619318 372.215909"></polygon>
            <polygon id="two-38918" fill="#A9B8F4" points="673.619318 449.219843 673.619318 477.405157 645.434003 477.405157 645.434003 449.219843"></polygon>
            <polygon id="two-38919" fill="#A9B8F4" points="673.619318 449.219843 645.434003 449.219843 659.526661 424.810315"></polygon>
            <polygon id="two-38920" fill="#A9B8F4" points="673.619318 449.219843 659.526661 424.810315 687.711976 424.810315"></polygon>
            <polygon id="two-38921" fill="#A9B8F4" points="673.619318 477.405157 673.619318 449.219843 698.028846 463.3125"></polygon>
            <polygon id="two-38923" fill="#A9B8F4" points="698.028846 463.3125 673.619318 449.219843 687.711976 424.810315 712.121503 438.902972"></polygon>
            <polygon id="two-38970" fill="#B5C2F5" points="389.001311 775.104021 364.59222 789.196678 364.59222 761.011364"></polygon>
            <polygon id="two-38972" fill="#B5C2F5" points="350.499563 736.602273 350.499563 708.416521 378.684878 708.416521 378.684878 736.602273"></polygon>
            <polygon id="two-38973" fill="#B5C2F5" points="350.499563 736.602273 378.684878 736.602273 364.59222 761.011364"></polygon>
            <polygon id="two-38974" fill="#B5C2F5" points="350.499563 736.602273 364.59222 761.011364 336.406906 761.011364"></polygon>
            <polygon id="two-38975" fill="#B5C2F5" points="350.499563 708.416521 350.499563 736.602273 326.090035 722.509178"></polygon>
            <polygon id="two-38976" fill="#B5C2F5" points="350.499563 708.416521 326.090035 722.509178 326.090035 694.323864"></polygon>
            <polygon id="two-38977" fill="#B5C2F5" points="326.090035 722.509178 350.499563 736.602273 336.406906 761.011364 311.997378 746.918706"></polygon>
            <polygon id="two-38978" fill="#B5C2F5" points="311.997378 669.914773 311.997378 641.729458 340.182692 641.729458 340.182692 669.914773"></polygon>
            <polygon id="two-38979" fill="#B5C2F5" points="311.997378 669.914773 340.182692 669.914773 326.090035 694.323864"></polygon>
            <polygon id="two-38980" fill="#B5C2F5" points="311.997378 669.914773 326.090035 694.323864 297.90472 694.323864"></polygon>
            <polygon id="two-38981" fill="#B5C2F5" points="311.997378 641.729458 311.997378 669.914773 287.588287 655.822115"></polygon>
            <polygon id="two-38982" fill="#B5C2F5" points="311.997378 641.729458 287.588287 655.822115 287.588287 627.636801"></polygon>
            <polygon id="two-38983" fill="#B5C2F5" points="287.588287 655.822115 311.997378 669.914773 297.90472 694.323864 273.495629 680.231206"></polygon>
            <polygon id="two-38984" fill="#B5C2F5" points="273.495629 603.227273 273.495629 575.041958 301.680944 575.041958 301.680944 603.227273"></polygon>
            <polygon id="two-38985" fill="#B5C2F5" points="273.495629 603.227273 301.680944 603.227273 287.588287 627.636801"></polygon>
            <polygon id="two-38986" fill="#B5C2F5" points="273.495629 603.227273 287.588287 627.636801 259.402972 627.636801"></polygon>
            <polygon id="two-38987" fill="#B5C2F5" points="273.495629 575.041958 273.495629 603.227273 249.086101 589.134615"></polygon>
            <polygon id="two-38989" fill="#B5C2F5" points="249.086101 589.134615 273.495629 603.227273 259.402972 627.636801 234.993444 613.544143"></polygon>
            <polygon id="two-39044" fill="#BBC7F5" points="610.708042 263.250437 610.708042 291.435752 582.522727 291.435752 582.522727 263.250437"></polygon>
            <polygon id="two-39045" fill="#BBC7F5" points="610.708042 263.250437 582.522727 263.250437 596.615385 238.841346"></polygon>
            <polygon id="two-39046" fill="#BBC7F5" points="610.708042 263.250437 596.615385 238.841346 624.800699 238.841346"></polygon>
            <polygon id="two-39047" fill="#BBC7F5" points="610.708042 291.435752 610.708042 263.250437 635.11757 277.343094"></polygon>
            <polygon id="two-39048" fill="#BBC7F5" points="610.708042 291.435752 635.11757 277.343094 635.11757 305.528409"></polygon>
            <polygon id="two-39049" fill="#BBC7F5" points="635.11757 277.343094 610.708042 263.250437 624.800699 238.841346 649.210227 252.934003"></polygon>
            <polygon id="two-39050" fill="#BBC7F5" points="649.210227 329.937937 649.210227 358.123252 621.024913 358.123252 621.024913 329.937937"></polygon>
            <polygon id="two-39051" fill="#BBC7F5" points="649.210227 329.937937 621.024913 329.937937 635.11757 305.528409"></polygon>
            <polygon id="two-39052" fill="#BBC7F5" points="649.210227 329.937937 635.11757 305.528409 663.302885 305.528409"></polygon>
            <polygon id="two-39053" fill="#BBC7F5" points="649.210227 358.123252 649.210227 329.937937 673.619318 344.030594"></polygon>
            <polygon id="two-39054" fill="#BBC7F5" points="649.210227 358.123252 673.619318 344.030594 673.619318 372.215909"></polygon>
            <polygon id="two-39055" fill="#BBC7F5" points="673.619318 344.030594 649.210227 329.937937 663.302885 305.528409 687.711976 319.621066"></polygon>
            <polygon id="two-39056" fill="#BBC7F5" points="687.711976 396.625 687.711976 424.810315 659.526661 424.810315 659.526661 396.625"></polygon>
            <polygon id="two-39057" fill="#BBC7F5" points="687.711976 396.625 659.526661 396.625 673.619318 372.215909"></polygon>
            <polygon id="two-39058" fill="#BBC7F5" points="687.711976 396.625 673.619318 372.215909 701.804633 372.215909"></polygon>
            <polygon id="two-39059" fill="#BBC7F5" points="687.711976 424.810315 687.711976 396.625 712.121503 410.717657"></polygon>
            <polygon id="two-39060" fill="#BBC7F5" points="687.711976 424.810315 712.121503 410.717657 712.121503 438.902972"></polygon>
            <polygon id="two-39061" fill="#BBC7F5" points="712.121503 410.717657 687.711976 396.625 701.804633 372.215909 726.214161 386.308566"></polygon>
            <polygon id="two-39122" fill="#C7D1F6" points="336.406906 789.196678 336.406906 761.011364 364.59222 761.011364 364.59222 789.196678"></polygon>
            <polygon id="two-39123" fill="#C7D1F6" points="336.406906 789.196678 364.59222 789.196678 350.499563 813.605769"></polygon>
            <polygon id="two-39124" fill="#C7D1F6" points="336.406906 789.196678 350.499563 813.605769 322.314248 813.605769"></polygon>
            <polygon id="two-39125" fill="#C7D1F6" points="336.406906 761.011364 336.406906 789.196678 311.997378 775.104021"></polygon>
            <polygon id="two-39126" fill="#C7D1F6" points="336.406906 761.011364 311.997378 775.104021 311.997378 746.918706"></polygon>
            <polygon id="two-39127" fill="#C7D1F6" points="311.997378 775.104021 336.406906 789.196678 322.314248 813.605769 297.90472 799.513112"></polygon>
            <polygon id="two-39128" fill="#C7D1F6" points="297.90472 722.509178 297.90472 694.323864 326.090035 694.323864 326.090035 722.509178"></polygon>
            <polygon id="two-39129" fill="#C7D1F6" points="297.90472 722.509178 326.090035 722.509178 311.997378 746.918706"></polygon>
            <polygon id="two-39130" fill="#C7D1F6" points="297.90472 722.509178 311.997378 746.918706 283.812063 746.918706"></polygon>
            <polygon id="two-39131" fill="#C7D1F6" points="297.90472 694.323864 297.90472 722.509178 273.495629 708.416521"></polygon>
            <polygon id="two-39132" fill="#C7D1F6" points="297.90472 694.323864 273.495629 708.416521 273.495629 680.231206"></polygon>
            <polygon id="two-39133" fill="#C7D1F6" points="273.495629 708.416521 297.90472 722.509178 283.812063 746.918706 259.402972 732.826049"></polygon>
            <polygon id="two-39134" fill="#C7D1F6" points="259.402972 655.822115 259.402972 627.636801 287.588287 627.636801 287.588287 655.822115"></polygon>
            <polygon id="two-39135" fill="#C7D1F6" points="259.402972 655.822115 287.588287 655.822115 273.495629 680.231206"></polygon>
            <polygon id="two-39136" fill="#C7D1F6" points="259.402972 655.822115 273.495629 680.231206 245.310315 680.231206"></polygon>
            <polygon id="two-39137" fill="#C7D1F6" points="259.402972 627.636801 259.402972 655.822115 234.993444 641.729458"></polygon>
            <polygon id="two-39138" fill="#C7D1F6" points="259.402972 627.636801 234.993444 641.729458 234.993444 613.544143"></polygon>
            <polygon id="two-39139" fill="#C7D1F6" points="234.993444 641.729458 259.402972 655.822115 245.310315 680.231206 220.900787 666.138549"></polygon>
            <polygon id="two-39212" fill="#CED6F7" points="663.302885 277.343094 663.302885 305.528409 635.11757 305.528409 635.11757 277.343094"></polygon>
            <polygon id="two-39213" fill="#CED6F7" points="663.302885 277.343094 635.11757 277.343094 649.210227 252.934003"></polygon>
            <polygon id="two-39215" fill="#CED6F7" points="663.302885 305.528409 663.302885 277.343094 687.711976 291.435752"></polygon>
            <polygon id="two-39216" fill="#CED6F7" points="663.302885 305.528409 687.711976 291.435752 687.711976 319.621066"></polygon>
            <polygon id="two-39218" fill="#CED6F7" points="701.804633 344.030594 701.804633 372.215909 673.619318 372.215909 673.619318 344.030594"></polygon>
            <polygon id="two-39219" fill="#CED6F7" points="701.804633 344.030594 673.619318 344.030594 687.711976 319.621066"></polygon>
            <polygon id="two-39220" fill="#CED6F7" points="701.804633 344.030594 687.711976 319.621066 715.89729 319.621066"></polygon>
            <polygon id="two-39221" fill="#CED6F7" points="701.804633 372.215909 701.804633 344.030594 726.214161 358.123252"></polygon>
            <polygon id="two-39222" fill="#CED6F7" points="701.804633 372.215909 726.214161 358.123252 726.214161 386.308566"></polygon>
            <polygon id="two-39223" fill="#CED6F7" points="726.214161 358.123252 701.804633 344.030594 715.89729 319.621066 740.306818 333.713724"></polygon>
            <polygon id="two-39224" fill="#CED6F7" points="740.306818 410.717657 740.306818 438.902972 712.121503 438.902972 712.121503 410.717657"></polygon>
            <polygon id="two-39225" fill="#CED6F7" points="740.306818 410.717657 712.121503 410.717657 726.214161 386.308566"></polygon>
            <polygon id="two-39226" fill="#CED6F7" points="740.306818 410.717657 726.214161 386.308566 754.399476 386.308566"></polygon>
            <polygon id="two-39229" fill="#CED6F7" points="764.715909 424.810315 740.306818 410.717657 754.399476 386.308566 778.808566 400.401224"></polygon>
            <polygon id="two-39300" fill="#DAE0F8" points="322.314248 813.605769 297.90472 827.698427 297.90472 799.513112"></polygon>
            <polygon id="two-39302" fill="#DAE0F8" points="283.812063 775.104021 283.812063 746.918706 311.997378 746.918706 311.997378 775.104021"></polygon>
            <polygon id="two-39303" fill="#DAE0F8" points="283.812063 775.104021 311.997378 775.104021 297.90472 799.513112"></polygon>
            <polygon id="two-39304" fill="#DAE0F8" points="283.812063 775.104021 297.90472 799.513112 269.719406 799.513112"></polygon>
            <polygon id="two-39305" fill="#DAE0F8" points="283.812063 746.918706 283.812063 775.104021 259.402972 761.011364"></polygon>
            <polygon id="two-39306" fill="#DAE0F8" points="283.812063 746.918706 259.402972 761.011364 259.402972 732.826049"></polygon>
            <polygon id="two-39307" fill="#DAE0F8" points="259.402972 761.011364 283.812063 775.104021 269.719406 799.513112 245.310315 785.420455"></polygon>
            <polygon id="two-39308" fill="#DAE0F8" points="245.310315 708.416521 245.310315 680.231206 273.495629 680.231206 273.495629 708.416521"></polygon>
            <polygon id="two-39309" fill="#DAE0F8" points="245.310315 708.416521 273.495629 708.416521 259.402972 732.826049"></polygon>
            <polygon id="two-39310" fill="#DAE0F8" points="245.310315 708.416521 259.402972 732.826049 231.217657 732.826049"></polygon>
            <polygon id="two-39311" fill="#DAE0F8" points="245.310315 680.231206 245.310315 708.416521 220.900787 694.323864"></polygon>
            <polygon id="two-39312" fill="#DAE0F8" points="245.310315 680.231206 220.900787 694.323864 220.900787 666.138549"></polygon>
            <polygon id="two-39313" fill="#DAE0F8" points="220.900787 694.323864 245.310315 708.416521 231.217657 732.826049 206.808129 718.733392"></polygon>
            <polygon id="two-39314" fill="#DAE0F8" points="206.808129 641.729458 206.808129 613.544143 234.993444 613.544143 234.993444 641.729458"></polygon>
            <polygon id="two-39315" fill="#DAE0F8" points="206.808129 641.729458 234.993444 641.729458 220.900787 666.138549"></polygon>
            <polygon id="two-39316" fill="#DAE0F8" points="206.808129 641.729458 220.900787 666.138549 192.715472 666.138549"></polygon>
            <polygon id="two-39404" fill="#E0E5F8" points="715.89729 291.435752 715.89729 319.621066 687.711976 319.621066 687.711976 291.435752"></polygon>
            <polygon id="two-39410" fill="#E0E5F8" points="754.399476 358.123252 754.399476 386.308566 726.214161 386.308566 726.214161 358.123252"></polygon>
            <polygon id="two-39411" fill="#E0E5F8" points="754.399476 358.123252 726.214161 358.123252 740.306818 333.713724"></polygon>
            <polygon id="two-39413" fill="#E0E5F8" points="754.399476 386.308566 754.399476 358.123252 778.808566 372.215909"></polygon>
            <polygon id="two-39414" fill="#E0E5F8" points="754.399476 386.308566 778.808566 372.215909 778.808566 400.401224"></polygon>
            <polygon id="two-39506" fill="#ECEFF9" points="231.217657 761.011364 231.217657 732.826049 259.402972 732.826049 259.402972 761.011364"></polygon>
            <polygon id="two-39512" fill="#ECEFF9" points="192.715472 694.323864 192.715472 666.138549 220.900787 666.138549 220.900787 694.323864"></polygon>
            <polygon id="two-39513" fill="#ECEFF9" points="192.715472 694.323864 220.900787 694.323864 206.808129 718.733392"></polygon>
            <polygon id="two-39515" fill="#ECEFF9" points="192.715472 666.138549 192.715472 694.323864 168.306381 680.231206"></polygon>
        </g>
    </g>
</svg>